<?xml version="1.0" standalone="no"?>
<!DOCTYPE svg PUBLIC "-//W3C//DTD SVG 20010904//EN"
 "http://www.w3.org/TR/2001/REC-SVG-20010904/DTD/svg10.dtd">
<svg version="1.0" xmlns="http://www.w3.org/2000/svg"
 width="100.000000pt" height="39.000000pt" viewBox="0 0 430.000000 167.000000"
 preserveAspectRatio="xMidYMid meet">

<g transform="translate(0.000000,167.000000) scale(0.100000,-0.100000)"
fill="#000000" stroke="none">
<path d="M3608 1639 c-16 -9 -18 -26 -18 -124 0 -106 2 -115 21 -125 16 -9 25
-8 40 6 16 15 19 31 19 120 0 80 -3 106 -16 118 -18 19 -23 19 -46 5z"/>
<path d="M3979 1393 c-64 -62 -79 -82 -77 -103 2 -18 10 -26 27 -28 18 -3 40
13 97 69 78 77 91 109 53 129 -18 10 -29 2 -100 -67z"/>
<path d="M3167 1453 c-20 -20 -1 -54 67 -122 64 -64 78 -73 100 -67 45 11 33
44 -46 123 -67 68 -101 86 -121 66z"/>
<path d="M3573 1270 c-155 -32 -253 -193 -209 -343 24 -81 69 -136 146 -175
59 -31 71 -33 135 -29 80 4 118 21 181 79 79 72 103 186 64 292 -48 127 -184
203 -317 176z m17 -270 c0 -126 -4 -190 -10 -190 -38 0 -111 65 -130 115 -26
68 -4 172 46 216 20 18 74 48 87 49 4 0 7 -85 7 -190z m108 182 c9 -7 12 -51
10 -188 -3 -161 -5 -179 -20 -182 -17 -3 -18 11 -18 187 0 105 3 191 8 191 4
0 13 -4 20 -8z m126 -187 c0 -28 -7 -63 -17 -80 -16 -29 -16 -27 -16 85 1 113
1 114 16 80 9 -19 16 -57 17 -85z"/>
<path d="M1750 835 l0 -285 30 0 30 0 0 285 0 285 -30 0 -30 0 0 -285z"/>
<path d="M1939 1099 c-17 -33 3 -69 39 -69 33 0 52 16 52 45 0 29 -19 45 -52
45 -18 0 -31 -7 -39 -21z"/>
<path d="M2980 1011 c-13 -25 -13 -27 6 -45 12 -12 38 -16 114 -16 118 0 130
4 130 40 0 37 -12 40 -135 40 -93 0 -105 -2 -115 -19z"/>
<path d="M4032 1018 c-6 -6 -12 -20 -12 -29 0 -33 25 -40 135 -37 90 3 110 6
119 21 8 12 8 22 0 35 -9 14 -29 17 -120 20 -77 2 -113 -1 -122 -10z"/>
<path d="M215 936 c-17 -7 -36 -20 -44 -29 -19 -24 -31 -21 -31 8 0 21 -5 25
-30 25 l-30 0 0 -195 0 -195 35 0 35 0 0 143 c0 138 1 144 23 165 48 46 133
46 157 2 6 -10 10 -84 10 -164 l0 -146 35 0 35 0 0 153 c0 133 -2 156 -20 184
-35 58 -108 78 -175 49z"/>
<path d="M572 924 c-54 -27 -63 -43 -37 -64 12 -10 21 -8 51 10 22 14 52 23
77 23 52 0 77 -28 77 -88 l0 -42 -67 -5 c-74 -5 -145 -35 -163 -67 -13 -25
-13 -77 0 -102 30 -54 129 -62 199 -16 l39 26 6 -24 c5 -18 13 -25 31 -25 l25
0 0 148 c0 120 -3 153 -18 182 -35 71 -129 89 -220 44z m168 -239 c0 -36 -5
-48 -24 -60 -60 -39 -123 -37 -146 5 -21 39 14 74 93 90 77 15 77 15 77 -35z"/>
<path d="M1373 931 c-57 -27 -93 -83 -100 -158 -6 -68 8 -129 39 -168 47 -61
155 -82 234 -46 139 63 139 309 0 372 -53 24 -120 24 -173 0z m156 -60 c66
-46 65 -205 -1 -254 -33 -25 -98 -26 -134 -3 -39 26 -57 80 -51 150 6 70 30
106 78 123 39 13 74 8 108 -16z"/>
<path d="M2275 936 c-17 -7 -36 -20 -44 -29 -19 -24 -31 -21 -31 8 0 21 -5 25
-30 25 l-30 0 0 -195 0 -195 35 0 35 0 0 143 c0 138 1 144 23 165 48 46 133
46 157 2 6 -10 10 -84 10 -164 l0 -146 35 0 35 0 0 153 c0 133 -2 156 -20 184
-35 58 -108 78 -175 49z"/>
<path d="M2653 931 c-57 -27 -93 -83 -100 -158 -6 -68 8 -129 39 -168 47 -61
155 -82 234 -46 139 63 139 309 0 372 -53 24 -120 24 -173 0z m156 -60 c66
-46 65 -205 -1 -254 -33 -25 -98 -26 -134 -3 -39 26 -57 80 -51 150 6 70 30
106 78 123 39 13 74 8 108 -16z"/>
<path d="M861 931 c2 -5 38 -93 79 -195 l75 -186 35 0 35 0 75 186 c41 103 77
190 78 195 2 5 -12 9 -32 9 l-35 0 -58 -150 c-32 -82 -60 -150 -63 -150 -3 0
-30 67 -61 148 l-56 147 -37 3 c-23 2 -37 -1 -35 -7z"/>
<path d="M1950 745 l0 -195 30 0 30 0 0 195 0 195 -30 0 -30 0 0 -195z"/>
<path d="M3232 647 c-57 -58 -73 -80 -70 -98 2 -17 10 -25 28 -27 36 -4 173
134 168 169 -2 17 -10 25 -28 27 -20 2 -41 -13 -98 -71z"/>
<path d="M3907 713 c-20 -20 -1 -54 67 -122 57 -56 79 -72 97 -69 16 2 25 11
27 27 3 18 -13 40 -69 97 -68 68 -102 87 -122 67z"/>
<path d="M3608 589 c-16 -9 -18 -26 -18 -124 0 -101 2 -115 18 -124 14 -7 25
-6 40 5 20 14 22 24 22 119 0 81 -3 107 -16 119 -18 19 -23 19 -46 5z"/>
<path d="M137 293 c-7 -11 -107 -262 -107 -268 0 -3 8 -5 18 -5 11 0 23 13 31
35 12 35 12 35 75 35 61 0 63 -1 79 -35 16 -33 48 -49 46 -22 0 6 -24 68 -52
137 -34 81 -58 126 -69 128 -9 2 -18 -1 -21 -5z m59 -149 c6 -23 4 -24 -40
-24 -25 0 -46 4 -46 9 0 5 10 35 22 67 l22 57 18 -43 c10 -23 21 -53 24 -66z"/>
<path d="M376 278 c4 -13 23 -75 43 -138 49 -155 61 -155 111 -5 l37 110 37
-112 c52 -155 60 -153 114 24 23 75 40 138 37 141 -2 2 -11 2 -19 -1 -12 -5
-24 -39 -73 -202 -4 -14 -17 13 -43 90 -24 71 -42 111 -52 113 -12 2 -25 -25
-54 -110 l-37 -113 -32 110 c-28 94 -35 110 -55 113 -19 3 -21 0 -14 -20z"/>
<path d="M870 287 c-50 -18 -80 -67 -80 -135 0 -50 3 -58 39 -93 34 -34 44
-39 85 -39 26 0 60 7 77 15 94 49 91 202 -5 246 -47 21 -68 22 -116 6z m121
-46 c54 -55 34 -168 -35 -191 -50 -16 -102 7 -122 56 -47 113 74 218 157 135z"/>
<path d="M1120 160 c0 -133 1 -140 20 -140 18 0 20 7 20 60 0 53 2 60 20 60
12 0 33 -21 60 -60 27 -40 47 -60 61 -60 23 0 22 3 -30 74 -25 36 -32 51 -22
54 26 9 51 42 51 68 0 58 -41 84 -131 84 l-49 0 0 -140z m135 86 c20 -30 7
-62 -31 -76 -55 -21 -64 -15 -64 45 l0 55 40 0 c31 0 43 -5 55 -24z"/>
<path d="M1370 160 c0 -133 1 -140 20 -140 18 0 20 7 20 65 0 45 4 65 13 65 6
0 39 -29 72 -66 39 -42 67 -65 78 -63 13 3 3 20 -42 74 l-59 70 54 62 c30 33
54 64 54 67 0 19 -35 0 -72 -41 -70 -76 -78 -83 -88 -83 -6 0 -10 28 -10 65 0
58 -2 65 -20 65 -19 0 -20 -7 -20 -140z"/>
<path d="M1720 160 c0 -133 1 -140 20 -140 19 0 20 7 20 140 0 133 -1 140 -20
140 -19 0 -20 -7 -20 -140z"/>
<path d="M1840 160 c0 -116 2 -140 15 -140 11 0 15 20 17 102 l3 102 78 -102
c43 -56 85 -102 93 -102 11 0 14 25 14 140 0 116 -2 140 -15 140 -11 0 -15
-21 -17 -107 l-3 -108 -83 108 c-46 59 -88 107 -93 107 -5 0 -9 -60 -9 -140z"/>
<path d="M2210 161 c0 -134 1 -141 20 -141 17 0 20 7 20 49 l0 48 52 5 c40 4
57 11 75 32 29 34 29 77 0 112 -20 23 -33 27 -95 32 l-72 5 0 -142z m132 92
c43 -39 10 -103 -54 -103 l-38 0 0 60 0 60 37 0 c20 0 45 -7 55 -17z"/>
<path d="M2450 161 c0 -134 1 -141 20 -141 18 0 20 7 20 60 0 53 2 60 20 60
12 0 34 -21 62 -60 25 -36 49 -60 60 -60 25 0 23 6 -24 69 -28 37 -37 56 -29
59 28 9 51 43 51 75 0 51 -27 69 -110 75 l-70 5 0 -142z m135 89 c35 -38 -5
-90 -70 -90 -24 0 -25 3 -25 55 l0 55 38 0 c26 0 45 -7 57 -20z"/>
<path d="M2755 282 c-49 -24 -75 -66 -75 -124 0 -88 63 -144 153 -135 69 6
108 46 115 116 2 29 -1 63 -8 81 -27 66 -114 95 -185 62z m118 -33 c62 -48 53
-159 -15 -192 -76 -37 -138 12 -138 108 0 38 5 52 29 76 36 35 86 39 124 8z"/>
<path d="M3083 289 c-42 -12 -80 -59 -88 -108 -9 -53 22 -124 64 -145 35 -19
104 -21 150 -5 30 10 31 13 31 65 l0 54 -45 0 c-25 0 -45 -4 -45 -10 0 -5 12
-10 26 -10 23 0 25 -3 22 -37 -3 -31 -7 -38 -33 -45 -35 -9 -86 5 -109 31 -23
26 -31 82 -16 125 20 61 76 78 168 50 13 -4 22 -2 22 4 0 28 -93 48 -147 31z"/>
<path d="M3300 160 c0 -133 1 -140 20 -140 18 0 20 7 20 60 0 53 2 60 20 60
12 0 33 -21 60 -60 27 -40 47 -60 61 -60 23 0 22 3 -30 74 -25 36 -32 51 -22
54 26 9 51 42 51 68 0 58 -41 84 -131 84 l-49 0 0 -140z m135 86 c20 -30 7
-62 -31 -76 -55 -21 -64 -15 -64 45 l0 55 40 0 c31 0 43 -5 55 -24z"/>
<path d="M3550 160 l0 -140 85 0 c50 0 85 4 85 10 0 6 -28 10 -65 10 l-65 0 0
55 0 55 55 0 c30 0 55 5 55 10 0 6 -25 10 -55 10 l-55 0 0 50 0 50 65 0 c51 0
65 3 65 15 0 12 -16 15 -85 15 l-85 0 0 -140z"/>
<path d="M3808 284 c-32 -17 -45 -55 -32 -92 7 -19 24 -32 64 -47 49 -19 55
-24 55 -50 0 -21 -7 -33 -26 -44 -23 -12 -29 -12 -58 2 -32 16 -51 15 -51 -2
0 -13 49 -31 83 -31 64 0 109 58 86 112 -8 21 -25 33 -61 46 -52 18 -72 40
-62 66 8 22 50 31 80 17 25 -11 44 -8 44 9 0 9 -55 30 -79 30 -9 -1 -28 -7
-43 -16z"/>
<path d="M4018 284 c-32 -17 -45 -55 -32 -92 7 -19 24 -32 64 -47 49 -19 55
-24 55 -50 0 -21 -7 -33 -26 -44 -23 -12 -29 -12 -58 2 -32 16 -51 15 -51 -2
0 -13 49 -31 83 -31 64 0 109 58 86 112 -8 21 -25 33 -61 46 -52 18 -72 40
-62 66 8 22 50 31 80 17 25 -11 44 -8 44 9 0 9 -55 30 -79 30 -9 -1 -28 -7
-43 -16z"/>
</g>
</svg>
